<svg xmlns="http://www.w3.org/2000/svg" viewBox="0 0 1440 900" preserveAspectRatio="xMidYMid slice">
  <defs>
    <linearGradient id="bg" x1="0%" y1="0%" x2="100%" y2="100%">
      <stop offset="0%" stop-color="#0c1220"/>
      <stop offset="45%" stop-color="#0a1628"/>
      <stop offset="100%" stop-color="#071018"/>
    </linearGradient>
    <linearGradient id="wave" x1="0%" y1="0%" x2="100%" y2="0%">
      <stop offset="0%" stop-color="#0891b2" stop-opacity="0"/>
      <stop offset="50%" stop-color="#22d3ee" stop-opacity="0.35"/>
      <stop offset="100%" stop-color="#0891b2" stop-opacity="0"/>
    </linearGradient>
    <radialGradient id="glow" cx="20%" cy="15%" r="55%">
      <stop offset="0%" stop-color="#06b6d4" stop-opacity="0.22"/>
      <stop offset="100%" stop-color="#06b6d4" stop-opacity="0"/>
    </radialGradient>
    <radialGradient id="glow2" cx="85%" cy="80%" r="45%">
      <stop offset="0%" stop-color="#0e7490" stop-opacity="0.28"/>
      <stop offset="100%" stop-color="#0e7490" stop-opacity="0"/>
    </radialGradient>
    <pattern id="grid" width="48" height="48" patternUnits="userSpaceOnUse">
      <path d="M 48 0 L 0 0 0 48" fill="none" stroke="#22d3ee" stroke-opacity="0.06" stroke-width="1"/>
    </pattern>
  </defs>
  <rect width="1440" height="900" fill="url(#bg)"/>
  <rect width="1440" height="900" fill="url(#glow)"/>
  <rect width="1440" height="900" fill="url(#glow2)"/>
  <rect width="1440" height="900" fill="url(#grid)"/>
  <path d="M0 620 Q360 560 720 620 T1440 620 L1440 900 L0 900 Z" fill="#0891b2" fill-opacity="0.08"/>
  <path d="M0 680 Q400 620 800 680 T1440 680 L1440 900 L0 900 Z" fill="url(#wave)" fill-opacity="0.5"/>
  <path d="M0 740 Q320 700 640 740 T1280 740 T1440 740 L1440 900 L0 900 Z" fill="#22d3ee" fill-opacity="0.06"/>
  <ellipse cx="280" cy="320" rx="120" ry="40" fill="none" stroke="#22d3ee" stroke-opacity="0.12" stroke-width="2"/>
  <ellipse cx="280" cy="320" rx="80" ry="26" fill="none" stroke="#22d3ee" stroke-opacity="0.18" stroke-width="1.5"/>
  <ellipse cx="280" cy="320" rx="40" ry="13" fill="none" stroke="#67e8f9" stroke-opacity="0.25" stroke-width="1"/>
  <g stroke="#22d3ee" stroke-opacity="0.1" stroke-width="1">
    <line x1="180" y1="200" x2="380" y2="440"/>
    <line x1="380" y1="200" x2="180" y2="440"/>
    <rect x="200" y="240" width="160" height="160" rx="8" fill="none"/>
  </g>
  <circle cx="1100" cy="260" r="4" fill="#22d3ee" fill-opacity="0.5"/>
  <circle cx="1180" cy="300" r="3" fill="#22d3ee" fill-opacity="0.35"/>
  <circle cx="1050" cy="340" r="2.5" fill="#67e8f9" fill-opacity="0.4"/>
  <path d="M980 380 L1100 260 L1180 300 L1050 340 Z" fill="none" stroke="#0891b2" stroke-opacity="0.15" stroke-width="1"/>
</svg>
