<svg xmlns="http://www.w3.org/2000/svg" viewBox="0 0 64 64" fill="none">
  <rect width="64" height="64" rx="14" fill="#0077FF"/>
  <path fill="#fff" d="M33.2 35.8c.4-.4 2-2 2.2-2.6.2-.4.2-.8 0-1.1-.2-.3-1.4-1-1.9-1.1-.4-.1-1.1-.1-1.6 0-1 .2-2.6 1.4-3.6 1.4-.9 0-2.4-1.2-3.9-1.2-2 0-3.8 1.2-6 3.7-2.1 2.4-4.2 6.7-4.2 9.6 0 2.9 1.8 4.3 3.5 4.3 1.1 0 2.4-.7 3.9-.7 1.4 0 2.3.7 3.9.7 1.6 0 2.7-1.4 3.7-2.8 1.2-1.6 1.7-3.2 1.7-3.3 0-.1-3.3-1.3-3.3-5.1 0-3.2 2.4-4.7 2.6-4.9Zm-2.6-8.3c.8-1 1.3-2.3 1.2-3.6-1.2.1-2.6.7-3.4 1.6-.8.9-1.4 2.2-1.2 3.5 1.3.1 2.6-.6 3.4-1.5Z"/>
</svg>
